# xmcd CD database file
#
# Track frame offsets:
#	150
#	19600
#	34397
#	51077
#	64977
#	75480
#	91220
#	106075
#	121162
#	134465
#	154150
#	169450
#	184272
#	200890
#	214027
#	223750
#	237045
#	249270
#	260462
#	273242
#	290125
#	303605
#	315845
#	329175
#
# Disc length: 4563 seconds
#
# Revision: 3
# Processed by: cddbd v1.5.2PL0 Copyright (c) Steve Scherf et al.
# Submitted via: CDex 1.51
#
DISCID=6711d118
DTITLE=Tião Carreiro e Pardinho - Tião Carreiro e Pardinho Dose Dupla Vol. 2
DYEAR=1995
DGENRE=Sertanejo
TTITLE0=Golpe de Mestre
TTITLE1=O Pulo do Gato
TTITLE2=Rio De Lágrimas
TTITLE3=Amargurado
TTITLE4=Saudade
TTITLE5=Cabelo Loiro
TTITLE6=Pai João
TTITLE7=A Vaca Já Foi P'ro Brejo
TTITLE8=Pagode Em Brasília
TTITLE9=Hoje Eu Não Posso Ir
TTITLE10=Arapó
TTITLE11=Carteiro
TTITLE12=A Mão Do Tempo
TTITLE13=Veneno Lento
TTITLE14=Fonte Dos Prazeres
TTITLE15=Nossas Vidas
TTITLE16=Romance Proibido
TTITLE17=Ambiciosa
TTITLE18=Preto Velho
TTITLE19=Mundo Velho
TTITLE20=Navalha Na Carne
TTITLE21=Veneno Da Mentira
TTITLE22=Nó Cego
TTITLE23=Cruz Pesada
EXTD=YEAR: 1995
EXTT0=
EXTT1=
EXTT2=
EXTT3=
EXTT4=
EXTT5=
EXTT6=
EXTT7=
EXTT8=
EXTT9=
EXTT10=
EXTT11=
EXTT12=
EXTT13=
EXTT14=
EXTT15=
EXTT16=
EXTT17=
EXTT18=
EXTT19=
EXTT20=
EXTT21=
EXTT22=
EXTT23=
PLAYORDER=
